<?xml version="1.0" encoding="utf-8"?>
<!-- Generator: Adobe Illustrator 16.0.0, SVG Export Plug-In . SVG Version: 6.00 Build 0)  -->
<!DOCTYPE svg PUBLIC "-//W3C//DTD SVG 1.1//EN" "http://www.w3.org/Graphics/SVG/1.1/DTD/svg11.dtd">
<svg version="1.1" id="Capa_1" xmlns="http://www.w3.org/2000/svg" xmlns:xlink="http://www.w3.org/1999/xlink" x="0px" y="0px"
	 width="612px" height="792px" viewBox="0 0 612 792" enable-background="new 0 0 612 792" xml:space="preserve">
<g id="info">
	<g>
		<path fill="#C4C8CA" d="M293.25,561.75h25.5V319.5h-25.5V561.75z M306,90C136.999,90,0,226.999,0,396s136.999,306,306,306
			c169.001,0,306-136.999,306-306S475.001,90,306,90z M306,676.5C151.33,676.5,25.5,550.67,25.5,396
			c0-154.67,125.83-280.5,280.5-280.5c154.67,0,280.5,125.83,280.5,280.5C586.5,550.67,460.67,676.5,306,676.5z M306,217.5
			c-10.927,0-25.5,15.415-25.5,25.5c0,10.098,14.573,25.5,25.5,25.5s25.5-14.611,25.5-25.5S316.927,217.5,306,217.5z"/>
	</g>
</g>
</svg>
