<?xml version="1.0" encoding="utf-8"?>
<!-- Generator: Adobe Illustrator 16.0.0, SVG Export Plug-In . SVG Version: 6.00 Build 0)  -->
<!DOCTYPE svg PUBLIC "-//W3C//DTD SVG 1.1//EN" "http://www.w3.org/Graphics/SVG/1.1/DTD/svg11.dtd">
<svg version="1.1" id="Capa_1" xmlns="http://www.w3.org/2000/svg" xmlns:xlink="http://www.w3.org/1999/xlink" x="0px" y="0px"
	 width="115.383px" height="73.823px" viewBox="0 20.78 115.383 73.823" enable-background="new 0 20.78 115.383 73.823"
	 xml:space="preserve">
<g>
	<path fill="#C4C8CA" d="M11.025,87.78h93.333c1.932,0,3.5-1.57,3.5-3.5v-60c0-1.93-1.568-3.5-3.5-3.5H11.025
		c-1.93,0-3.5,1.57-3.5,3.5v60C7.525,86.21,9.096,87.78,11.025,87.78z M10.525,24.28c0-0.276,0.224-0.5,0.5-0.5h93.333
		c0.276,0,0.5,0.224,0.5,0.5v60c0,0.276-0.224,0.5-0.5,0.5H11.025c-0.276,0-0.5-0.224-0.5-0.5V24.28z M115.383,90.458v2.801
		c0,0.742-0.602,1.345-1.344,1.345H1.344C0.602,94.604,0,94.001,0,93.259v-2.801h47.387c0.234,0.781,0.95,1.354,1.807,1.354h16.996
		c0.856,0,1.572-0.572,1.808-1.354H115.383z"/>
</g>
</svg>
