<?xml version="1.0" encoding="utf-8"?>
<!-- Generator: Adobe Illustrator 16.0.0, SVG Export Plug-In . SVG Version: 6.00 Build 0)  -->
<!DOCTYPE svg PUBLIC "-//W3C//DTD SVG 1.1//EN" "http://www.w3.org/Graphics/SVG/1.1/DTD/svg11.dtd">
<svg version="1.1" id="Layer_1" xmlns="http://www.w3.org/2000/svg" xmlns:xlink="http://www.w3.org/1999/xlink" x="0px" y="0px"
	 width="290.446px" height="290.451px" viewBox="0 0 290.446 290.451" enable-background="new 0 0 290.446 290.451"
	 xml:space="preserve">
<g>
	<path fill="#FFFFFF" d="M145.228,0C65.144,0,0,65.147,0,145.226s65.144,145.226,145.228,145.226
		c80.074,0,145.219-65.147,145.219-145.226S225.302,0,145.228,0z M169.27,13.545c-19.955,11.478,2.988-1.718-100.037,57.542
		C57.682,60.69,39.275,68.938,39.275,84.431c0,10.011,8.189,17.969,17.967,17.969c11.029,0,19.701-9.984,17.667-21.18
		c105.42-60.654,83.703-48.155,110.66-63.658c30.422,9.637,56.176,29.887,72.904,56.38c-40.109,23.07-57.622,33.143-97.735,56.22
		c-3.145-2.731-7.249-4.396-11.749-4.396c-9.906,0-17.958,8.062-17.958,17.969c0,1.142,0.113,2.255,0.318,3.335
		C20.962,210.573,38.607,200.426,26.65,207.297c-6.115-11.635-10.554-24.265-13.027-37.587
		c30.666-17.638,10.152-5.837,162.778-93.638c11.571,10.051,29.694,1.787,29.694-13.571c0-9.882-8.024-17.97-17.963-17.97
		c-11.186,0-19.868,10.237-17.612,21.528C3.852,161.932,44.755,138.402,11.912,157.292C4.067,68.748,82.548-2.265,169.27,13.545z
		 M47.884,83.366c0.719-6.299,7.337-10.189,13.175-7.578c3.822,1.694,6.292,5.817,5.485,10.242
		c-0.963,5.612-6.767,9.402-12.587,7.243C50.142,91.848,47.417,88.201,47.884,83.366z M139.533,143.733
		c0-0.497,0.073-0.975,0.148-1.457c0.703-4.522,4.597-8.008,9.308-8.008c1.222,0,2.382,0.256,3.447,0.674
		c3.517,1.377,6.015,4.788,6.015,8.791c0,0.419-0.056,0.812-0.112,1.208c-0.602,4.645-4.534,8.254-9.35,8.254
		c-1.299,0-2.557-0.269-3.695-0.752C141.916,151.001,139.533,147.639,139.533,143.733z M197.439,63.966
		c-0.909,5.797-6.881,9.592-12.74,7.332c-3.794-1.485-6.483-5.269-5.911-10c0.797-6.252,7.353-9.955,13.043-7.507
		C195.604,55.397,198.158,59.334,197.439,63.966z M125.093,277.589c20.385-11.72,2.731-1.567,95.844-55.129
		c12.806,10.904,32.327-0.407,29.287-16.852c-0.719-3.996-2.754-7.53-5.651-10.148c-12.896-11.642-33.154,0.047-29.604,17.03
		c-100.676,57.914-79.756,45.881-106.717,61.389c-31.576-9.093-58.382-29.498-75.749-56.553
		c14.588-8.387,82.283-47.33,104.595-60.161c3.168,2.813,7.33,4.539,11.892,4.539c11.073,0,19.86-10.071,17.63-21.522
		c100.425-57.776,84.709-48.734,97.627-56.16c5.984,11.612,10.333,24.198,12.71,37.462c-34.83,20.027-123.06,70.785-159.187,91.569
		c-11.6-10.253-29.843-1.95-29.843,13.446c0,5.188,2.24,10.111,6.207,13.556c12.699,11.048,32.637-0.082,29.404-16.917
		c152.345-87.638,123.312-70.936,155.063-89.198C285.864,220.605,210.158,290.494,125.093,277.589z M241.849,210.429
		c-0.979,5.542-6.738,9.324-12.528,7.207c-3.85-1.413-6.6-5.138-6.127-9.875c0.684-6.316,7.271-10.275,13.217-7.607
		C240.139,201.832,242.615,205.747,241.849,210.429z M96.557,225.255c0.817-6.166,7.265-9.893,12.997-7.479
		c3.837,1.615,6.378,5.647,5.657,10.149c-0.898,5.91-7.017,9.647-12.79,7.356C98.604,233.768,95.939,229.924,96.557,225.255z"/>
</g>
</svg>
